0
SECTION
2
HEADER
9
$INSUNITS
70
4
9
$ACADVER
1
AC1014
9
$HANDSEED
5
FFFF
0
ENDSEC
0
SECTION
2
TABLES
0
TABLE
2
VPORT
5
8
100
AcDbSymbolTable
0
ENDTAB
0
TABLE
2
LTYPE
5
5
100
AcDbSymbolTable
0
LTYPE
5
14
100
AcDbSymbolTableRecord
100
AcDbLinetypeTableRecord
2
BYBLOCK
70
0
0
LTYPE
5
15
100
AcDbSymbolTableRecord
100
AcDbLinetypeTableRecord
2
BYLAYER
70
0
0
ENDTAB
0
TABLE
2
LAYER
5
2
100
AcDbSymbolTable
70
2
0
LAYER
5
50
100
AcDbSymbolTableRecord
100
AcDbLayerTableRecord
2
0
70
0
6
CONTINUOUS
0
ENDTAB
0
TABLE
2
STYLE
5
3
100
AcDbSymbolTable
70
1
0
STYLE
5
11
100
AcDbSymbolTableRecord
100
AcDbTextStyleTableRecord
2
STANDARD
70
0
0
ENDTAB
0
TABLE
2
VIEW
5
6
100
AcDbSymbolTable
70
0
0
ENDTAB
0
TABLE
2
UCS
5
7
100
AcDbSymbolTable
70
0
0
ENDTAB
0
TABLE
2
APPID
5
9
100
AcDbSymbolTable
70
2
0
APPID
5
12
100
AcDbSymbolTableRecord
100
AcDbRegAppTableRecord
2
ACAD
70
0
0
ENDTAB
0
TABLE
2
DIMSTYLE
5
A
100
AcDbSymbolTable
70
1
0
ENDTAB
0
TABLE
2
BLOCK_RECORD
5
1
100
AcDbSymbolTable
70
1
0
BLOCK_RECORD
5
1F
100
AcDbSymbolTableRecord
100
AcDbBlockTableRecord
2
*MODEL_SPACE
0
BLOCK_RECORD
5
1B
100
AcDbSymbolTableRecord
100
AcDbBlockTableRecord
2
*PAPER_SPACE
0
ENDTAB
0
ENDSEC
0
SECTION
2
BLOCKS
0
BLOCK
5
20
100
AcDbEntity
100
AcDbBlockBegin
2
*MODEL_SPACE
0
ENDBLK
5
21
100
AcDbEntity
100
AcDbBlockEnd
0
BLOCK
5
1C
100
AcDbEntity
100
AcDbBlockBegin
2
*PAPER_SPACE
0
ENDBLK
5
1D
100
AcDbEntity
100
AcDbBlockEnd
0
ENDSEC
0
SECTION
2
ENTITIES
0
LWPOLYLINE
5
100
100
AcDbEntity
8
0
100
AcDbPolyline
90
6
70
1
43
0.0
10
165.8418650355473
20
-81.723072317923879
10
27.293849377453299
20
15.260538642741913
42
0.60676725786807206
10
20.999999999999996
20
11.983610960665736
10
21.000000000000018
20
-85
42
0.41421356237309404
10
25
20
-89
10
163.54801565809396
20
-89.000000000000028
42
0.73328387541138196
0
LWPOLYLINE
5
101
100
AcDbEntity
8
0
100
AcDbPolyline
90
8
70
1
43
0.0
10
-57.071428571428562
20
-221.5
42
-0.41421356237309243
10
-58.071428571428569
20
-222.5
10
-61.071428571428541
20
-222.5
42
-0.41421356237309243
10
-62.071428571428555
20
-221.5
10
-62.071428571428548
20
-178.5
42
-0.41421356237309243
10
-61.071428571428541
20
-177.5
10
-58.071428571428569
20
-177.5
42
-0.41421356237309243
10
-57.071428571428555
20
-178.5
0
LWPOLYLINE
5
102
100
AcDbEntity
8
0
100
AcDbPolyline
90
6
70
1
43
0.0
10
-208.99999998509884
20
34.999999999999993
42
-0.41421356237309404
10
-205
20
38.999999985098825
10
-79.309127199048888
20
38.999999985098846
42
-0.73328387541136364
10
-77.015277830140832
20
31.723072330131359
10
-202.7061506310919
20
-56.260538630534356
42
-0.60676725786806407
10
-208.99999998509881
20
-52.983610960665658
0
LWPOLYLINE
5
103
100
AcDbEntity
8
0
100
AcDbPolyline
90
8
70
1
43
0.0
10
1.4999999999999853
20
-187.5
42
-0.41421356237309459
10
2.5
20
-188.5
10
2.4999999999999982
20
-221.5
42
-0.41421356237309453
10
1.4999999999999858
20
-222.5
10
-1.4999999999999856
20
-222.5
42
-0.41421356237309453
10
-2.5
20
-221.5
10
-2.4999999999999982
20
-188.5
42
-0.41421356237309453
10
-1.4999999999999858
20
-187.5
0
LWPOLYLINE
5
104
100
AcDbEntity
8
0
100
AcDbPolyline
90
8
70
1
43
0.0
10
91.85714285714289
20
-221.5
42
-0.41421356237310025
10
90.857142857142861
20
-222.5
10
87.85714285714289
20
-222.5
42
-0.41421356237310025
10
86.857142857142861
20
-221.5
10
86.857142857142847
20
-178.5
42
-0.41421356237310025
10
87.85714285714289
20
-177.5
10
90.857142857142861
20
-177.5
42
-0.41421356237310025
10
91.857142857142861
20
-178.5
0
LWPOLYLINE
5
105
100
AcDbEntity
8
0
100
AcDbPolyline
90
8
70
1
43
0.0
10
121.64285714285717
20
-221.5
42
-0.41421356237310025
10
120.64285714285714
20
-222.5
10
117.64285714285717
20
-222.5
42
-0.41421356237310025
10
116.64285714285714
20
-221.5
10
116.64285714285712
20
-178.5
42
-0.41421356237310025
10
117.64285714285717
20
-177.5
10
120.64285714285714
20
-177.5
42
-0.41421356237310025
10
121.64285714285714
20
-178.5
0
LWPOLYLINE
5
106
100
AcDbEntity
8
0
100
AcDbPolyline
90
6
70
1
43
0.0
10
-165.84186503554724
20
201.72307231792388
10
-27.293849377453299
20
104.73946135725808
42
0.60676725786807384
10
-20.999999999999996
20
108.01638903933426
10
-21.000000000000018
20
204.99999999999997
42
0.4142135623731022
10
-25
20
209
10
-163.54801565809396
20
209.00000000000003
42
0.73328387541137729
0
LWPOLYLINE
5
107
100
AcDbEntity
8
0
100
AcDbPolyline
90
6
70
1
43
0.0
10
-208.99999998509884
20
172.98361096066566
42
-0.60676725786807262
10
-202.70615063109187
20
176.26053863053437
10
-77.015277830140832
20
88.276927669868641
42
-0.73328387541136553
10
-79.309127199048888
20
81.000000014901147
10
-205
20
81.000000014901175
42
-0.4142135623730937
10
-208.99999998509884
20
85
0
LWPOLYLINE
5
108
100
AcDbEntity
8
0
100
AcDbPolyline
90
6
70
1
43
0.0
10
208.99999998509884
20
-52.983610960665658
42
-0.60676725786807018
10
202.70615063109187
20
-56.26053863053437
10
77.015277830140832
20
31.723072330131355
42
-0.73328387541136597
10
79.309127199048888
20
38.999999985098846
10
205
20
38.999999985098825
42
-0.41421356237309404
10
208.99999998509884
20
35
0
LWPOLYLINE
5
109
100
AcDbEntity
8
0
100
AcDbPolyline
90
6
70
1
43
0.0
10
208.99999998509884
20
85
42
-0.4142135623730937
10
205
20
81.000000014901161
10
79.309127199048902
20
81.000000014901161
42
-0.73328387541136297
10
77.015277830140832
20
88.276927669868641
10
202.7061506310919
20
176.26053863053431
42
-0.60676725786807262
10
208.99999998509881
20
172.98361096066566
0
CIRCLE
5
110
100
AcDbEntity
8
0
100
AcDbCircle
10
-220
20
255
30
0
40
4.2000000000000171
0
LWPOLYLINE
5
111
100
AcDbEntity
8
0
100
AcDbPolyline
90
8
70
1
43
0.0
10
32.285714285714285
20
-221.5
42
-0.41421356237309631
10
31.285714285714263
20
-222.5
10
28.285714285714292
20
-222.5
42
-0.41421356237309631
10
27.285714285714278
20
-221.5
10
27.285714285714274
20
-178.5
42
-0.41421356237309631
10
28.285714285714292
20
-177.5
10
31.285714285714263
20
-177.5
42
-0.41421356237309631
10
32.285714285714278
20
-178.5
0
CIRCLE
5
112
100
AcDbEntity
8
0
100
AcDbCircle
10
0
20
-149.99999999999997
30
0
40
4.2000000000000002
0
LWPOLYLINE
5
113
100
AcDbEntity
8
0
100
AcDbPolyline
90
8
70
1
43
0.0
10
151.42857142857144
20
-221.5
42
-0.41421356237309503
10
150.42857142857142
20
-222.5
10
147.42857142857144
20
-222.5
42
-0.41421356237309503
10
146.42857142857144
20
-221.5
10
146.42857142857144
20
-178.5
42
-0.41421356237309503
10
147.42857142857144
20
-177.5
10
150.42857142857142
20
-177.5
42
-0.41421356237309503
10
151.42857142857144
20
-178.5
0
LWPOLYLINE
5
114
100
AcDbEntity
8
0
100
AcDbPolyline
90
8
70
1
43
0.0
10
-27.285714285714274
20
-221.5
42
-0.41421356237309631
10
-28.285714285714292
20
-222.5
10
-31.285714285714263
20
-222.5
42
-0.41421356237309631
10
-32.285714285714278
20
-221.5
10
-32.285714285714285
20
-178.5
42
-0.41421356237309631
10
-31.285714285714263
20
-177.5
10
-28.285714285714292
20
-177.5
42
-0.41421356237309631
10
-27.285714285714278
20
-178.5
0
LWPOLYLINE
5
115
100
AcDbEntity
8
0
100
AcDbPolyline
90
6
70
1
43
0.0
10
-27.293849377453299
20
15.26053864274191
10
-165.84186503554724
20
-81.723072317923894
42
0.73328387541137219
10
-163.54801565809396
20
-89.000000000000028
10
-25
20
-89
42
0.4142135623730937
10
-21.000000000000014
20
-85
10
-20.999999999999996
20
11.983610960665732
42
0.60676725786807262
0
CIRCLE
5
116
100
AcDbEntity
8
0
100
AcDbCircle
10
-250
20
-215
30
0
40
4.2000000000000171
0
LWPOLYLINE
5
117
100
AcDbEntity
8
0
100
AcDbPolyline
90
8
70
1
43
0.0
10
-116.6428571428571
20
-221.5
42
-0.41421356237310025
10
-117.64285714285712
20
-222.5
10
-120.6428571428571
20
-222.5
42
-0.41421356237310025
10
-121.64285714285711
20
-221.5
10
-121.64285714285712
20
-178.5
42
-0.41421356237310025
10
-120.6428571428571
20
-177.5
10
-117.64285714285712
20
-177.5
42
-0.41421356237310025
10
-116.64285714285711
20
-178.5
0
CIRCLE
5
118
100
AcDbEntity
8
0
100
AcDbCircle
10
195
20
195
30
0
40
1.6499999999999915
0
LWPOLYLINE
5
119
100
AcDbEntity
8
0
100
AcDbPolyline
90
8
70
1
43
0.0
10
-206
20
-221.5
42
-0.41421356237309503
10
-207.00000000000003
20
-222.5
10
-210
20
-222.5
42
-0.41421356237309503
10
-211
20
-221.5
10
-211
20
-178.5
42
-0.41421356237309503
10
-210
20
-177.5
10
-207.00000000000003
20
-177.5
42
-0.41421356237309503
10
-206
20
-178.5
0
LWPOLYLINE
5
120
100
AcDbEntity
8
0
100
AcDbPolyline
90
8
70
1
43
0.0
10
62.071428571428584
20
-221.5
42
-0.41421356237309243
10
61.071428571428577
20
-222.5
10
58.071428571428605
20
-222.5
42
-0.41421356237309243
10
57.071428571428591
20
-221.5
10
57.071428571428598
20
-178.5
42
-0.41421356237309243
10
58.071428571428605
20
-177.5
10
61.071428571428577
20
-177.5
42
-0.41421356237309243
10
62.071428571428591
20
-178.5
0
LWPOLYLINE
5
121
100
AcDbEntity
8
0
100
AcDbPolyline
90
8
70
1
43
0.0
10
-176.21428571428572
20
-221.5
42
-0.41421356237309503
10
-177.21428571428575
20
-222.5
10
-180.21428571428572
20
-222.5
42
-0.41421356237309503
10
-181.21428571428572
20
-221.5
10
-181.21428571428572
20
-178.5
42
-0.41421356237309503
10
-180.21428571428572
20
-177.5
10
-177.21428571428575
20
-177.5
42
-0.41421356237309503
10
-176.21428571428572
20
-178.5
0
LWPOLYLINE
5
122
100
AcDbEntity
8
0
100
AcDbPolyline
90
8
70
1
43
0.0
10
-146.42857142857144
20
-221.5
42
-0.41421356237310025
10
-147.42857142857147
20
-222.5
10
-150.42857142857144
20
-222.5
42
-0.41421356237310025
10
-151.42857142857144
20
-221.5
10
-151.42857142857147
20
-178.5
42
-0.41421356237310025
10
-150.42857142857144
20
-177.5
10
-147.42857142857147
20
-177.5
42
-0.41421356237310025
10
-146.42857142857144
20
-178.5
0
CIRCLE
5
123
100
AcDbEntity
8
0
100
AcDbCircle
10
-195
20
-75
30
0
40
1.6499999999999915
0
CIRCLE
5
124
100
AcDbEntity
8
0
100
AcDbCircle
10
220
20
255
30
0
40
4.2000000000000171
0
LWPOLYLINE
5
125
100
AcDbEntity
8
0
100
AcDbPolyline
90
8
70
1
43
0.0
10
-86.857142857142819
20
-221.5
42
-0.41421356237310025
10
-87.857142857142847
20
-222.5
10
-90.857142857142819
20
-222.5
42
-0.41421356237310025
10
-91.857142857142833
20
-221.5
10
-91.857142857142847
20
-178.5
42
-0.41421356237310025
10
-90.857142857142819
20
-177.5
10
-87.857142857142847
20
-177.5
42
-0.41421356237310025
10
-86.857142857142833
20
-178.5
0
CIRCLE
5
126
100
AcDbEntity
8
0
100
AcDbCircle
10
-250
20
255
30
0
40
4.2000000000000171
0
CIRCLE
5
127
100
AcDbEntity
8
0
100
AcDbCircle
10
-195
20
195
30
0
40
1.6499999999999915
0
CIRCLE
5
128
100
AcDbEntity
8
0
100
AcDbCircle
10
0
20
-119.99999999999997
30
0
40
4.2000000000000002
0
CIRCLE
5
129
100
AcDbEntity
8
0
100
AcDbCircle
10
-250
20
-185
30
0
40
4.2000000000000171
0
CIRCLE
5
130
100
AcDbEntity
8
0
100
AcDbCircle
10
195
20
-75
30
0
40
1.6499999999999915
0
CIRCLE
5
131
100
AcDbEntity
8
0
100
AcDbCircle
10
0
20
55
30
0
40
1.6500000000000001
0
CIRCLE
5
132
100
AcDbEntity
8
0
100
AcDbCircle
10
250
20
-215
30
0
40
4.2000000000000171
0
LWPOLYLINE
5
133
100
AcDbEntity
8
0
100
AcDbPolyline
90
6
70
1
43
0.0
10
163.54801565809396
20
209.00000000000003
42
-0.73328387541137119
10
165.84186503554724
20
201.72307231792388
10
27.293849377453302
20
104.73946135725808
42
-0.60676725786807639
10
20.999999999999996
20
108.01638903933426
10
21.000000000000014
20
205
42
-0.41421356237309503
10
25
20
209
0
CIRCLE
5
134
100
AcDbEntity
8
0
100
AcDbCircle
10
250
20
255
30
0
40
4.2000000000000171
0
CIRCLE
5
135
100
AcDbEntity
8
0
100
AcDbCircle
10
250
20
-185
30
0
40
4.2000000000000171
0
LWPOLYLINE
5
136
100
AcDbEntity
8
0
100
AcDbPolyline
90
8
70
1
43
0.0
10
211
20
-221.5
42
-0.41421356237309503
10
210
20
-222.5
10
207.00000000000003
20
-222.5
42
-0.41421356237309503
10
206
20
-221.5
10
206
20
-178.5
42
-0.41421356237309503
10
207.00000000000003
20
-177.5
10
210
20
-177.5
42
-0.41421356237309503
10
211
20
-178.5
0
LWPOLYLINE
5
137
100
AcDbEntity
8
0
100
AcDbPolyline
90
8
70
1
43
0.0
10
181.21428571428572
20
-221.5
42
-0.41421356237309503
10
180.21428571428572
20
-222.5
10
177.21428571428575
20
-222.5
42
-0.41421356237309503
10
176.21428571428572
20
-221.5
10
176.21428571428572
20
-178.5
42
-0.41421356237309503
10
177.21428571428575
20
-177.5
10
180.21428571428572
20
-177.5
42
-0.41421356237309503
10
181.21428571428572
20
-178.5
0
LWPOLYLINE
5
138
100
AcDbEntity
8
0
100
AcDbPolyline
90
8
70
1
43
0.0
10
270
20
-234
42
-0.41421356237309503
10
269
20
-235
10
-269
20
-235
42
-0.4142135623730846
10
-270
20
-234.00000000000003
10
-270
20
268.99999999999994
42
-0.4142135623730846
10
-269
20
270
10
269
20
270
42
-0.41421356237309503
10
270
20
269
0
ENDSEC
0
SECTION
2
OBJECTS
0
DICTIONARY
5
C
100
AcDbDictionary
3
ACAD_GROUP
350
D
3
ACAD_MLINESTYLE
350
17
0
DICTIONARY
5
D
100
AcDbDictionary
0
DICTIONARY
5
1A
330
C
100
AcDbDictionary
0
DICTIONARY
5
17
100
AcDbDictionary
0
ENDSEC
0
EOF
