0
SECTION
2
HEADER
9
$INSUNITS
70
4
9
$ACADVER
1
AC1014
9
$HANDSEED
5
FFFF
0
ENDSEC
0
SECTION
2
TABLES
0
TABLE
2
VPORT
5
8
100
AcDbSymbolTable
0
ENDTAB
0
TABLE
2
LTYPE
5
5
100
AcDbSymbolTable
0
LTYPE
5
14
100
AcDbSymbolTableRecord
100
AcDbLinetypeTableRecord
2
BYBLOCK
70
0
0
LTYPE
5
15
100
AcDbSymbolTableRecord
100
AcDbLinetypeTableRecord
2
BYLAYER
70
0
0
ENDTAB
0
TABLE
2
LAYER
5
2
100
AcDbSymbolTable
70
2
0
LAYER
5
50
100
AcDbSymbolTableRecord
100
AcDbLayerTableRecord
2
0
70
0
6
CONTINUOUS
0
ENDTAB
0
TABLE
2
STYLE
5
3
100
AcDbSymbolTable
70
1
0
STYLE
5
11
100
AcDbSymbolTableRecord
100
AcDbTextStyleTableRecord
2
STANDARD
70
0
0
ENDTAB
0
TABLE
2
VIEW
5
6
100
AcDbSymbolTable
70
0
0
ENDTAB
0
TABLE
2
UCS
5
7
100
AcDbSymbolTable
70
0
0
ENDTAB
0
TABLE
2
APPID
5
9
100
AcDbSymbolTable
70
2
0
APPID
5
12
100
AcDbSymbolTableRecord
100
AcDbRegAppTableRecord
2
ACAD
70
0
0
ENDTAB
0
TABLE
2
DIMSTYLE
5
A
100
AcDbSymbolTable
70
1
0
ENDTAB
0
TABLE
2
BLOCK_RECORD
5
1
100
AcDbSymbolTable
70
1
0
BLOCK_RECORD
5
1F
100
AcDbSymbolTableRecord
100
AcDbBlockTableRecord
2
*MODEL_SPACE
0
BLOCK_RECORD
5
1B
100
AcDbSymbolTableRecord
100
AcDbBlockTableRecord
2
*PAPER_SPACE
0
ENDTAB
0
ENDSEC
0
SECTION
2
BLOCKS
0
BLOCK
5
20
100
AcDbEntity
100
AcDbBlockBegin
2
*MODEL_SPACE
0
ENDBLK
5
21
100
AcDbEntity
100
AcDbBlockEnd
0
BLOCK
5
1C
100
AcDbEntity
100
AcDbBlockBegin
2
*PAPER_SPACE
0
ENDBLK
5
1D
100
AcDbEntity
100
AcDbBlockEnd
0
ENDSEC
0
SECTION
2
ENTITIES
0
CIRCLE
5
100
100
AcDbEntity
8
0
100
AcDbCircle
10
-3.5527136788005009e-14
20
234
30
0
40
3.25
0
LWPOLYLINE
5
101
100
AcDbEntity
8
0
100
AcDbPolyline
90
8
70
1
43
0.0
10
41.000000000000028
20
-36.999999995319058
42
-0.41421356237310025
10
39.999999999999964
20
-37.999999995319129
10
30.000000000000018
20
-37.999999995319158
42
-0.41421356237309503
10
29.000000000000028
20
-36.999999995319165
10
29.000000000000028
20
-24.999999995319115
42
-0.41421356237309764
10
31.000000000000021
20
-22.999999995319122
10
39.000000000000021
20
-22.999999995319126
42
-0.41421356237309309
10
41.000000000000028
20
-24.999999995319129
0
CIRCLE
5
102
100
AcDbEntity
8
0
100
AcDbCircle
10
249.99999999999997
20
78
30
0
40
3.2499999999999929
0
CIRCLE
5
103
100
AcDbEntity
8
0
100
AcDbCircle
10
249.99999999999997
20
-233.9999999956319
30
0
40
3.2499999999999929
0
CIRCLE
5
104
100
AcDbEntity
8
0
100
AcDbCircle
10
249.99999999999997
20
-77.999999995631867
30
0
40
3.2499999999999929
0
CIRCLE
5
105
100
AcDbEntity
8
0
100
AcDbCircle
10
151.75000000000003
20
-177.49999999499894
30
0
40
2.2500000000000142
0
CIRCLE
5
106
100
AcDbEntity
8
0
100
AcDbCircle
10
-3.5527136788005009e-14
20
-233.9999999956319
30
0
40
3.25
0
CIRCLE
5
107
100
AcDbEntity
8
0
100
AcDbCircle
10
-3.5527136788005009e-14
20
-77.999999995631867
30
0
40
3.25
0
CIRCLE
5
108
100
AcDbEntity
8
0
100
AcDbCircle
10
-3.5527136788005009e-14
20
78
30
0
40
3.25
0
CIRCLE
5
109
100
AcDbEntity
8
0
100
AcDbCircle
10
70.25
20
-38.500000000000014
30
0
40
2.2499999999999964
0
CIRCLE
5
110
100
AcDbEntity
8
0
100
AcDbCircle
10
185.25000000000003
20
-56.49999999999995
30
0
40
2.2500000000000142
0
CIRCLE
5
111
100
AcDbEntity
8
0
100
AcDbCircle
10
185.25000000000003
20
-148.49999999999983
30
0
40
2.2500000000000142
0
CIRCLE
5
112
100
AcDbEntity
8
0
100
AcDbCircle
10
70.250000000000028
20
-148.49999999999983
30
0
40
2.2499999999999964
0
CIRCLE
5
113
100
AcDbEntity
8
0
100
AcDbCircle
10
70.250000000000028
20
-56.49999999999995
30
0
40
2.2499999999999964
0
CIRCLE
5
114
100
AcDbEntity
8
0
100
AcDbCircle
10
70.25
20
53.500000000000007
30
0
40
2.2499999999999964
0
CIRCLE
5
115
100
AcDbEntity
8
0
100
AcDbCircle
10
185.25000000000003
20
53.500000000000007
30
0
40
2.2500000000000142
0
CIRCLE
5
116
100
AcDbEntity
8
0
100
AcDbCircle
10
185.25000000000003
20
-38.500000000000014
30
0
40
2.2500000000000142
0
CIRCLE
5
117
100
AcDbEntity
8
0
100
AcDbCircle
10
199
20
160.00000000000145
30
0
40
1.7500000000000071
0
CIRCLE
5
118
100
AcDbEntity
8
0
100
AcDbCircle
10
199.00000000000094
20
129.00000000000011
30
0
40
1.7500000000000071
0
CIRCLE
5
119
100
AcDbEntity
8
0
100
AcDbCircle
10
168.00000000000009
20
128.99999999999918
30
0
40
1.7500000000000071
0
CIRCLE
5
120
100
AcDbEntity
8
0
100
AcDbCircle
10
167.99999999999869
20
159.99999999999994
30
0
40
1.7500000000000071
0
CIRCLE
5
121
100
AcDbEntity
8
0
100
AcDbCircle
10
109.00000000000006
20
160.00000000000003
30
0
40
1.7500000000000071
0
CIRCLE
5
122
100
AcDbEntity
8
0
100
AcDbCircle
10
78.000000000000057
20
129.00000000000009
30
0
40
1.7500000000000071
0
CIRCLE
5
123
100
AcDbEntity
8
0
100
AcDbCircle
10
78.000000000000057
20
160.00000000000006
30
0
40
1.7500000000000071
0
CIRCLE
5
124
100
AcDbEntity
8
0
100
AcDbCircle
10
109.00000000000007
20
129.00000000000009
30
0
40
1.7500000000000071
0
CIRCLE
5
125
100
AcDbEntity
8
0
100
AcDbCircle
10
-109.00000000000003
20
128.99999999999997
30
0
40
1.7500000000000071
0
CIRCLE
5
126
100
AcDbEntity
8
0
100
AcDbCircle
10
-109.0000000000002
20
160.00000000000003
30
0
40
1.7500000000000071
0
CIRCLE
5
127
100
AcDbEntity
8
0
100
AcDbCircle
10
-77.999999999999744
20
129.00000000000003
30
0
40
1.7500000000000071
0
CIRCLE
5
128
100
AcDbEntity
8
0
100
AcDbCircle
10
-78.000000000000071
20
160.00000000000006
30
0
40
1.7500000000000071
0
CIRCLE
5
129
100
AcDbEntity
8
0
100
AcDbCircle
10
-198.99999999999082
20
129.00000000001586
30
0
40
1.7500000000000071
0
CIRCLE
5
130
100
AcDbEntity
8
0
100
AcDbCircle
10
-168.00000000000043
20
129.00000000000875
30
0
40
1.7500000000000071
0
CIRCLE
5
131
100
AcDbEntity
8
0
100
AcDbCircle
10
-168.00000000000028
20
160.00000000000023
30
0
40
1.7500000000000071
0
CIRCLE
5
132
100
AcDbEntity
8
0
100
AcDbCircle
10
-199
20
160.00000000000034
30
0
40
1.7500000000000071
0
CIRCLE
5
133
100
AcDbEntity
8
0
100
AcDbCircle
10
-250.00000000000003
20
78
30
0
40
3.2499999999999929
0
CIRCLE
5
134
100
AcDbEntity
8
0
100
AcDbCircle
10
-250.00000000000003
20
-77.999999995631867
30
0
40
3.2499999999999929
0
CIRCLE
5
135
100
AcDbEntity
8
0
100
AcDbCircle
10
-250.00000000000003
20
-233.9999999956319
30
0
40
3.2499999999999929
0
CIRCLE
5
136
100
AcDbEntity
8
0
100
AcDbCircle
10
-250.00000000000003
20
234
30
0
40
3.2499999999999929
0
CIRCLE
5
137
100
AcDbEntity
8
0
100
AcDbCircle
10
-100
20
-125
30
0
40
2.2499999999999964
0
CIRCLE
5
138
100
AcDbEntity
8
0
100
AcDbCircle
10
-100
20
25.000000000000007
30
0
40
2.2499999999999964
0
CIRCLE
5
139
100
AcDbEntity
8
0
100
AcDbCircle
10
-150
20
25.000000000000007
30
0
40
2.2499999999999964
0
CIRCLE
5
140
100
AcDbEntity
8
0
100
AcDbCircle
10
249.99999999999997
20
234
30
0
40
3.2499999999999929
0
CIRCLE
5
141
100
AcDbEntity
8
0
100
AcDbCircle
10
-150
20
-125
30
0
40
2.2499999999999964
0
CIRCLE
5
142
100
AcDbEntity
8
0
100
AcDbCircle
10
103.75000000000006
20
-177.49999999499894
30
0
40
2.2499999999999964
0
LWPOLYLINE
5
143
100
AcDbEntity
8
0
100
AcDbPolyline
90
24
70
1
43
0.0
10
-228.25000000000034
20
219.99999862523089
42
-0.99999999999999989
10
-234.24999999999972
20
220.00000137476917
10
-234.24998648143711
20
249.50000000000003
10
-264.5
20
249.49999999999909
10
-264.5
20
-249.49999999592882
10
15.000000000002629
20
-249.4999999958182
10
15
20
-241.99999999580896
10
26.999999999999993
20
-241.99999999581343
10
27.000000000002586
20
-249.49999999581343
10
264.5
20
-249.49999999571941
10
264.5
20
249.50000000000134
10
234.25000000000009
20
249.50000000000105
10
234.25000000000006
20
237.50000000000014
42
-0.99999999999999989
10
228.25000000000003
20
237.50000000000006
10
228.25000000000003
20
249.50000016493431
10
221.50001351856355
20
249.50000007761676
10
221.49999999999974
20
219.99999862523089
42
-0.99999999999999989
10
215.50000000000037
20
220.00000137476917
10
215.50001351856307
20
249.50000000000102
10
-215.5
20
249.50000000000011
10
-215.50000000000006
20
237.50000000000014
42
-0.99999999999999989
10
-221.50000000000006
20
237.50000000000006
10
-221.50000000000009
20
249.49999454514148
10
-228.24998648143895
20
249.49999446088469
0
ARC
5
144
100
AcDbEntity
8
0
100
AcDbCircle
10
-183.5
20
144.50000000000009
30
0
40
12.499999999999964
100
AcDbArc
50
-87.707557224044095
51
87.707557224044123
0
ARC
5
145
100
AcDbEntity
8
0
100
AcDbCircle
10
-183.5
20
144.50000000000009
30
0
40
12.499999999999964
100
AcDbArc
50
92.292442775956033
51
267.70755722404397
0
ARC
5
146
100
AcDbEntity
8
0
100
AcDbCircle
10
-93.500000000000014
20
144.50000000000009
30
0
40
12.499999999999964
100
AcDbArc
50
92.292442775955962
51
267.70755722404402
0
ARC
5
147
100
AcDbEntity
8
0
100
AcDbCircle
10
-93.500000000000014
20
144.50000000000009
30
0
40
12.499999999999964
100
AcDbArc
50
-87.707557224044038
51
87.707557224044038
0
ARC
5
148
100
AcDbEntity
8
0
100
AcDbCircle
10
93.500000000000014
20
144.50000000000009
30
0
40
12.499999999999964
100
AcDbArc
50
-87.707557224044038
51
87.707557224044038
0
ARC
5
149
100
AcDbEntity
8
0
100
AcDbCircle
10
93.500000000000014
20
144.50000000000009
30
0
40
12.499999999999964
100
AcDbArc
50
92.292442775955962
51
267.70755722404402
0
ARC
5
150
100
AcDbEntity
8
0
100
AcDbCircle
10
183.5
20
144.50000000000009
30
0
40
12.499999999999964
100
AcDbArc
50
92.292442775955905
51
267.70755722404408
0
ARC
5
151
100
AcDbEntity
8
0
100
AcDbCircle
10
183.5
20
144.50000000000009
30
0
40
12.499999999999964
100
AcDbArc
50
-87.707557224043995
51
87.707557224043995
0
CIRCLE
5
152
100
AcDbEntity
8
0
100
AcDbCircle
10
-169.5
20
-125
30
0
40
2.2500000000000142
0
CIRCLE
5
153
100
AcDbEntity
8
0
100
AcDbCircle
10
-80.5
20
34.500000000000014
30
0
40
2.2500000000000053
0
CIRCLE
5
154
100
AcDbEntity
8
0
100
AcDbCircle
10
-169.5
20
34.500000000000014
30
0
40
2.2500000000000142
0
CIRCLE
5
155
100
AcDbEntity
8
0
100
AcDbCircle
10
-80.5
20
-125
30
0
40
2.2500000000000053
0
LWPOLYLINE
5
156
100
AcDbEntity
8
0
100
AcDbPolyline
90
4
70
1
43
0.0
10
33.400000000000006
20
-41.999999995319172
42
-0.99999999999999989
10
36.599999999999994
20
-41.999999995319172
10
36.599999999999994
20
-54.499999995319172
42
-0.99999999999999989
10
33.400000000000006
20
-54.499999995319172
0
CIRCLE
5
157
100
AcDbEntity
8
0
100
AcDbCircle
10
151.75000000000003
20
-222.49909969859493
30
0
40
2.2500000000000142
0
CIRCLE
5
158
100
AcDbEntity
8
0
100
AcDbCircle
10
103.75000000000006
20
-222.49909969859493
30
0
40
2.2499999999999964
0
ENDSEC
0
SECTION
2
OBJECTS
0
DICTIONARY
5
C
100
AcDbDictionary
3
ACAD_GROUP
350
D
3
ACAD_MLINESTYLE
350
17
0
DICTIONARY
5
D
100
AcDbDictionary
0
DICTIONARY
5
1A
330
C
100
AcDbDictionary
0
DICTIONARY
5
17
100
AcDbDictionary
0
ENDSEC
0
EOF
