0
SECTION
2
HEADER
9
$INSUNITS
70
4
9
$ACADVER
1
AC1014
9
$HANDSEED
5
FFFF
0
ENDSEC
0
SECTION
2
TABLES
0
TABLE
2
VPORT
5
8
100
AcDbSymbolTable
0
ENDTAB
0
TABLE
2
LTYPE
5
5
100
AcDbSymbolTable
0
LTYPE
5
14
100
AcDbSymbolTableRecord
100
AcDbLinetypeTableRecord
2
BYBLOCK
70
0
0
LTYPE
5
15
100
AcDbSymbolTableRecord
100
AcDbLinetypeTableRecord
2
BYLAYER
70
0
0
ENDTAB
0
TABLE
2
LAYER
5
2
100
AcDbSymbolTable
70
2
0
LAYER
5
50
100
AcDbSymbolTableRecord
100
AcDbLayerTableRecord
2
0
70
0
6
CONTINUOUS
0
ENDTAB
0
TABLE
2
STYLE
5
3
100
AcDbSymbolTable
70
1
0
STYLE
5
11
100
AcDbSymbolTableRecord
100
AcDbTextStyleTableRecord
2
STANDARD
70
0
0
ENDTAB
0
TABLE
2
VIEW
5
6
100
AcDbSymbolTable
70
0
0
ENDTAB
0
TABLE
2
UCS
5
7
100
AcDbSymbolTable
70
0
0
ENDTAB
0
TABLE
2
APPID
5
9
100
AcDbSymbolTable
70
2
0
APPID
5
12
100
AcDbSymbolTableRecord
100
AcDbRegAppTableRecord
2
ACAD
70
0
0
ENDTAB
0
TABLE
2
DIMSTYLE
5
A
100
AcDbSymbolTable
70
1
0
ENDTAB
0
TABLE
2
BLOCK_RECORD
5
1
100
AcDbSymbolTable
70
1
0
BLOCK_RECORD
5
1F
100
AcDbSymbolTableRecord
100
AcDbBlockTableRecord
2
*MODEL_SPACE
0
BLOCK_RECORD
5
1B
100
AcDbSymbolTableRecord
100
AcDbBlockTableRecord
2
*PAPER_SPACE
0
ENDTAB
0
ENDSEC
0
SECTION
2
BLOCKS
0
BLOCK
5
20
100
AcDbEntity
100
AcDbBlockBegin
2
*MODEL_SPACE
0
ENDBLK
5
21
100
AcDbEntity
100
AcDbBlockEnd
0
BLOCK
5
1C
100
AcDbEntity
100
AcDbBlockBegin
2
*PAPER_SPACE
0
ENDBLK
5
1D
100
AcDbEntity
100
AcDbBlockEnd
0
ENDSEC
0
SECTION
2
ENTITIES
0
ARC
5
100
100
AcDbEntity
8
0
100
AcDbCircle
10
28.000000000002782
20
-248.49999999416076
30
0
40
1.0000000000000142
210
0
220
0
230
1
100
AcDbArc
50
180
51
270.00000000002626
0
LINE
5
101
100
AcDbEntity
8
0
100
AcDbLine
10
28.00000000000324
20
-249.49999999416079
30
0
11
263.50000000000051
21
-249.49999999404787
31
0
0
ARC
5
102
100
AcDbEntity
8
0
100
AcDbCircle
10
263.5
20
-248.49999999404787
30
0
40
1.0000000000000142
210
0
220
0
230
1
100
AcDbArc
50
270.00000000002927
51
360
0
LINE
5
103
100
AcDbEntity
8
0
100
AcDbLine
10
264.5
20
-248.4999999940479
30
0
11
264.5
21
248.50000000000134
31
0
0
ARC
5
104
100
AcDbEntity
8
0
100
AcDbCircle
10
263.5
20
248.50000000000131
30
0
40
1.0000000000000497
210
0
220
-0
230
1
100
AcDbArc
50
0
51
90
0
LINE
5
105
100
AcDbEntity
8
0
100
AcDbLine
10
263.5
20
249.50000000000134
30
0
11
235.25000000000006
21
249.50000000000105
31
0
0
ARC
5
106
100
AcDbEntity
8
0
100
AcDbCircle
10
235.25000000000009
20
248.50000000000102
30
0
40
1.0000000000000497
210
0
220
0
230
1
100
AcDbArc
50
90.000000000001634
51
180
0
LINE
5
107
100
AcDbEntity
8
0
100
AcDbLine
10
234.25000000000006
20
248.50000000000105
30
0
11
234.25000000000006
21
237.50000000000006
31
0
0
ARC
5
108
100
AcDbEntity
8
0
100
AcDbCircle
10
231.25000000000003
20
237.50000000000011
30
0
40
3.0000000000000071
210
0
220
0
230
1
100
AcDbArc
50
180
51
360
0
LINE
5
109
100
AcDbEntity
8
0
100
AcDbLine
10
228.25000000000003
20
237.50000000000006
30
0
11
228.25
21
248.50000015199834
31
0
0
ARC
5
110
100
AcDbEntity
8
0
100
AcDbCircle
10
227.24999999999994
20
248.50000015199825
30
0
40
1.0000000000000497
210
0
220
-0
230
1
100
AcDbArc
50
0
51
90.000000741171633
0
LINE
5
111
100
AcDbEntity
8
0
100
AcDbLine
10
227.24999998706406
20
249.50000015199834
30
0
11
222.50001304737128
21
249.50000009055273
31
0
0
ARC
5
112
100
AcDbEntity
8
0
100
AcDbCircle
10
222.50001306030728
20
248.50000009055265
30
0
40
1.0000000000000855
210
0
220
0
230
1
100
AcDbArc
50
90.000000741178141
51
179.9999737403875
0
LINE
5
113
100
AcDbEntity
8
0
100
AcDbLine
10
221.50001306030734
20
248.50000054880906
30
0
11
221.49999999999974
21
219.99999862523089
31
0
0
ARC
5
114
100
AcDbEntity
8
0
100
AcDbCircle
10
218.5
20
220.00000000000006
30
0
40
2.9999999999999671
210
0
220
0
230
1
100
AcDbArc
50
179.99997375427043
51
359.99997375427046
0
LINE
5
115
100
AcDbEntity
8
0
100
AcDbLine
10
215.50000000000037
20
220.0000013747692
30
0
11
215.5000130603064
21
248.49999954174464
31
0
0
ARC
5
116
100
AcDbEntity
8
0
100
AcDbCircle
10
214.50001306030646
20
248.50000000000097
30
0
40
1.0000000000000482
210
0
220
0
230
1
100
AcDbArc
50
-2.6259612497011986e-05
51
89.999999999996746
0
LINE
5
117
100
AcDbEntity
8
0
100
AcDbLine
10
214.50001306030651
20
249.50000000000102
30
0
11
-214.50000000000003
21
249.50000000000011
31
0
0
ARC
5
118
100
AcDbEntity
8
0
100
AcDbCircle
10
-214.50000000000003
20
248.50000000000009
30
0
40
1.0000000000000142
210
0
220
-0
230
1
100
AcDbArc
50
90
51
180
0
LINE
5
119
100
AcDbEntity
8
0
100
AcDbLine
10
-215.50000000000006
20
248.50000000000009
30
0
11
-215.50000000000006
21
237.50000000000006
31
0
0
ARC
5
120
100
AcDbEntity
8
0
100
AcDbCircle
10
-218.50000000000006
20
237.50000000000011
30
0
40
3.0000000000000071
210
0
220
0
230
1
100
AcDbArc
50
180
51
360
0
LINE
5
121
100
AcDbEntity
8
0
100
AcDbLine
10
-221.50000000000006
20
237.50000000000006
30
0
11
-221.50000000000009
21
248.49999453265895
31
0
0
ARC
5
122
100
AcDbEntity
8
0
100
AcDbCircle
10
-222.50000000000014
20
248.49999453265892
30
0
40
1.0000000000000497
210
0
220
-0
230
1
100
AcDbArc
50
0
51
90.000000715194687
0
LINE
5
123
100
AcDbEntity
8
0
100
AcDbLine
10
-222.50000001248264
20
249.49999453265895
30
0
11
-227.24998695217775
21
249.4999944733672
31
0
0
ARC
5
124
100
AcDbEntity
8
0
100
AcDbCircle
10
-227.24998693969519
20
248.49999447336722
30
0
40
0.99999999999997879
210
0
220
0
230
1
100
AcDbArc
50
90.000000715197956
51
179.9999737403875
0
LINE
5
125
100
AcDbEntity
8
0
100
AcDbLine
10
-228.24998693969508
20
248.49999493162358
30
0
11
-228.2500000000004
21
219.99999862523094
31
0
0
ARC
5
126
100
AcDbEntity
8
0
100
AcDbCircle
10
-231.25000000000006
20
220.00000000000006
30
0
40
2.9999999999999671
210
0
220
0
230
1
100
AcDbArc
50
179.99997375427043
51
359.99997375427046
0
LINE
5
127
100
AcDbEntity
8
0
100
AcDbLine
10
-234.24999999999972
20
220.0000013747692
30
0
11
-234.24998693969368
21
248.49999954174362
31
0
0
ARC
5
128
100
AcDbEntity
8
0
100
AcDbCircle
10
-235.24998693969363
20
248.49999999999997
30
0
40
1.0000000000000482
210
0
220
0
230
1
100
AcDbArc
50
-2.6259612497011986e-05
51
90
0
LINE
5
129
100
AcDbEntity
8
0
100
AcDbLine
10
-235.24998693969363
20
249.50000000000003
30
0
11
-263.50000000000006
21
249.49999999999915
31
0
0
ARC
5
130
100
AcDbEntity
8
0
100
AcDbCircle
10
-263.5
20
248.49999999999909
30
0
40
1.0000000000000497
210
0
220
0
230
1
100
AcDbArc
50
90.000000000003254
51
180
0
LINE
5
131
100
AcDbEntity
8
0
100
AcDbLine
10
-264.5
20
248.49999999999909
30
0
11
-264.5
21
-248.49999999430048
31
0
0
ARC
5
132
100
AcDbEntity
8
0
100
AcDbCircle
10
-263.49999999999994
20
-248.49999999430042
30
0
40
1.0000000000000853
210
0
220
0
230
1
100
AcDbArc
50
180
51
270.00000000002279
0
LINE
5
133
100
AcDbEntity
8
0
100
AcDbLine
10
-263.49999999999955
20
-249.49999999430051
30
0
11
14.000000000003325
21
-249.49999999416747
31
0
0
ARC
5
134
100
AcDbEntity
8
0
100
AcDbCircle
10
14.000000000002821
20
-248.4999999941675
30
0
40
0.99999999999997868
210
0
220
0
230
1
100
AcDbArc
50
-89.999999999971095
51
0
0
LINE
5
135
100
AcDbEntity
8
0
100
AcDbLine
10
15.000000000002835
20
-248.49999999416707
30
0
11
15.000000000000433
21
-242.99999999415689
31
0
0
ARC
5
136
100
AcDbEntity
8
0
100
AcDbCircle
10
16.000000000000433
20
-242.99999999415647
30
0
40
1.0000000000000142
210
0
220
-0
230
1
100
AcDbArc
50
89.99999999997496
51
180
0
LINE
5
137
100
AcDbEntity
8
0
100
AcDbLine
10
16.00000000000087
20
-241.99999999415644
30
0
11
26.000000000000863
21
-241.99999999416082
31
0
0
ARC
5
138
100
AcDbEntity
8
0
100
AcDbCircle
10
26.000000000000426
20
-242.99999999416082
30
0
40
1.0000000000000009
210
0
220
-0
230
1
100
AcDbArc
50
0
51
89.99999999997496
0
LINE
5
139
100
AcDbEntity
8
0
100
AcDbLine
10
27.000000000000426
20
-242.99999999416036
30
0
11
27.000000000002768
21
-248.49999999416121
31
0
0
CIRCLE
5
140
100
AcDbEntity
8
0
100
AcDbCircle
10
31.499999999999986
20
168.5
30
0
40
1.6000000000000014
210
0
220
-0
230
1
0
CIRCLE
5
141
100
AcDbEntity
8
0
100
AcDbCircle
10
70.250000000000028
20
-146.49999999394947
30
0
40
1.3750000000000018
210
0
220
-0
230
1
0
CIRCLE
5
142
100
AcDbEntity
8
0
100
AcDbCircle
10
212.75
20
81.500000006050527
30
0
40
2.2500000000000142
210
0
220
-0
230
1
0
CIRCLE
5
143
100
AcDbEntity
8
0
100
AcDbCircle
10
88.749999999999986
20
-39.499999993949473
30
0
40
2.2500000000000142
210
0
220
-0
230
1
0
CIRCLE
5
144
100
AcDbEntity
8
0
100
AcDbCircle
10
121.74999999999999
20
-9.4999999939494728
30
0
40
2.2500000000000142
210
0
220
-0
230
1
0
CIRCLE
5
145
100
AcDbEntity
8
0
100
AcDbCircle
10
21.250000000000018
20
-88.499999993949473
30
0
40
1.3749999999999996
210
0
220
-0
230
1
0
CIRCLE
5
146
100
AcDbEntity
8
0
100
AcDbCircle
10
-31.499999999999986
20
168.5
30
0
40
1.6000000000000014
210
0
220
-0
230
1
0
CIRCLE
5
147
100
AcDbEntity
8
0
100
AcDbCircle
10
31.499999999999986
20
130.5
30
0
40
1.6000000000000014
210
0
220
-0
230
1
0
CIRCLE
5
148
100
AcDbEntity
8
0
100
AcDbCircle
10
21.250000000000018
20
-146.49999999394947
30
0
40
1.3749999999999996
210
0
220
-0
230
1
0
CIRCLE
5
149
100
AcDbEntity
8
0
100
AcDbCircle
10
121.74999999999999
20
81.500000006050527
30
0
40
2.2500000000000142
210
0
220
-0
230
1
0
CIRCLE
5
150
100
AcDbEntity
8
0
100
AcDbCircle
10
212.75
20
-39.499999993949473
30
0
40
2.2500000000000142
210
0
220
-0
230
1
0
CIRCLE
5
151
100
AcDbEntity
8
0
100
AcDbCircle
10
212.75
20
-9.4999999939494728
30
0
40
2.2500000000000142
210
0
220
-0
230
1
0
CIRCLE
5
152
100
AcDbEntity
8
0
100
AcDbCircle
10
70.250000000000028
20
-88.499999993949473
30
0
40
1.3750000000000018
210
0
220
-0
230
1
0
CIRCLE
5
153
100
AcDbEntity
8
0
100
AcDbCircle
10
-31.499999999999986
20
130.5
30
0
40
1.6000000000000014
210
0
220
-0
230
1
0
CIRCLE
5
154
100
AcDbEntity
8
0
100
AcDbCircle
10
212.75
20
-169.49999999394947
30
0
40
2.2500000000000142
210
0
220
-0
230
1
0
LWPOLYLINE
5
155
100
AcDbEntity
8
0
100
AcDbPolyline
90
32
70
1
43
0.0
10
-225.49999999999997
20
163.75000000000003
42
-0.41421356237307422
10
-226.5
20
162.75000000000003
10
-228.75
20
162.75000000000003
42
0.99999999999999989
10
-228.75
20
158.25
10
-226.5
20
158.25
42
-0.41421356237308982
10
-225.49999999999997
20
157.25
10
-225.49999999999994
20
141.75000000000006
42
-0.41421356237310542
10
-226.5
20
140.75000000000003
10
-228.75
20
140.75000000000003
42
0.99999999999999989
10
-228.75
20
136.25
10
-226.5
20
136.25
42
-0.41421356237308982
10
-225.49999999999997
20
135.25
10
-225.49999999999997
20
128
42
0.41421356237309503
10
-224.49999999999994
20
127.00000000000001
10
-181.50000000000006
20
127.00000000000001
42
0.41421356237309503
10
-180.50000000000006
20
128
10
-180.50000000000009
20
135.25
42
-0.41421356237310542
10
-179.50000000000003
20
136.25
10
-177.25
20
136.25
42
0.99999999999999989
10
-177.25
20
140.75000000000003
10
-179.50000000000003
20
140.75000000000003
42
-0.41421356237308982
10
-180.50000000000006
20
141.75000000000003
10
-180.50000000000009
20
157.24999999999997
42
-0.41421356237310542
10
-179.50000000000003
20
158.25
10
-177.25
20
158.25
42
0.99999999999999989
10
-177.25
20
162.75000000000003
10
-179.50000000000003
20
162.75000000000003
42
-0.41421356237307422
10
-180.50000000000006
20
163.75000000000003
10
-180.50000000000006
20
170.99999999999997
42
0.41421356237309503
10
-181.50000000000006
20
172
10
-224.49999999999994
20
172
42
0.41421356237309503
10
-225.49999999999997
20
170.99999999999997
0
LWPOLYLINE
5
156
100
AcDbEntity
8
0
100
AcDbPolyline
90
32
70
1
43
0.0
10
-136.50000000000003
20
158.25
42
-0.41421356237309503
10
-135.50000000000003
20
157.25
10
-135.5
20
141.75000000000006
42
-0.41421356237309503
10
-136.5
20
140.75000000000003
10
-138.75000000000003
20
140.75000000000003
42
0.99999999999999989
10
-138.75000000000003
20
136.25
10
-136.50000000000003
20
136.25000000000003
42
-0.41421356237309503
10
-135.5
20
135.25
10
-135.5
20
128
42
0.41421356237309503
10
-134.5
20
127.00000000000001
10
-91.500000000000057
20
127.00000000000001
42
0.41421356237309503
10
-90.500000000000043
20
128
10
-90.500000000000057
20
135.25
42
-0.41421356237309503
10
-89.500000000000043
20
136.25
10
-87.250000000000014
20
136.25
42
0.99999999999999989
10
-87.250000000000014
20
140.75000000000003
10
-89.500000000000028
20
140.75
42
-0.41421356237309503
10
-90.500000000000043
20
141.75000000000003
10
-90.500000000000057
20
157.24999999999997
42
-0.41421356237309503
10
-89.500000000000043
20
158.25
10
-87.250000000000014
20
158.25
42
0.99999999999999989
10
-87.250000000000014
20
162.75000000000003
10
-89.500000000000028
20
162.75000000000003
42
-0.41421356237307422
10
-90.500000000000043
20
163.75000000000003
10
-90.500000000000043
20
170.99999999999997
42
0.41421356237309503
10
-91.500000000000043
20
172
10
-134.5
20
172
42
0.41421356237309503
10
-135.5
20
170.99999999999997
10
-135.49999999999994
20
163.75
42
-0.414213562373069
10
-136.50000000000003
20
162.75
10
-138.75000000000003
20
162.75000000000003
42
0.99999999999999989
10
-138.75000000000003
20
158.25
0
LWPOLYLINE
5
157
100
AcDbEntity
8
0
100
AcDbPolyline
90
32
70
1
43
0.0
10
121.49999999999999
20
135.25
42
-0.41421356237309503
10
122.49999999999999
20
136.24999999999997
10
124.75000000000001
20
136.25
42
0.99999999999999989
10
124.75000000000001
20
140.75000000000003
10
122.5
20
140.75
42
-0.41421356237309503
10
121.49999999999999
20
141.75000000000003
10
121.49999999999997
20
157.24999999999997
42
-0.41421356237309503
10
122.49999999999999
20
158.25
10
124.75000000000001
20
158.25
42
0.99999999999999989
10
124.75000000000001
20
162.75000000000003
10
122.5
20
162.75000000000003
42
-0.41421356237307422
10
121.49999999999999
20
163.75000000000003
10
121.49999999999999
20
170.99999999999997
42
0.41421356237309503
10
120.49999999999999
20
172
10
77.500000000000043
20
172
42
0.41421356237309503
10
76.500000000000043
20
170.99999999999997
10
76.500000000000071
20
163.75
42
-0.41421356237307944
10
75.500000000000043
20
162.75
10
73.250000000000014
20
162.75000000000003
42
0.99999999999999989
10
73.250000000000014
20
158.25
10
75.500000000000057
20
158.25
42
-0.41421356237309503
10
76.500000000000043
20
157.25
10
76.500000000000085
20
141.75000000000006
42
-0.41421356237309764
10
75.500000000000057
20
140.75000000000003
10
73.250000000000014
20
140.75000000000003
42
0.99999999999999989
10
73.250000000000014
20
136.25
10
75.500000000000057
20
136.25
42
-0.41421356237309503
10
76.500000000000057
20
135.25
10
76.500000000000057
20
128
42
0.41421356237309503
10
77.500000000000057
20
127.00000000000001
10
120.49999999999997
20
127.00000000000001
42
0.41421356237309503
10
121.49999999999999
20
128
0
LWPOLYLINE
5
158
100
AcDbEntity
8
0
100
AcDbPolyline
90
32
70
1
43
0.0
10
212.5
20
162.75000000000003
42
-0.41421356237307422
10
211.5
20
163.75000000000003
10
211.5
20
170.99999999999997
42
0.41421356237309503
10
210.49999999999997
20
172
10
167.50000000000003
20
172
42
0.41421356237309503
10
166.50000000000003
20
170.99999999999997
10
166.50000000000006
20
163.75000000000003
42
-0.4142135623730534
10
165.5
20
162.75
10
163.25
20
162.75000000000003
42
0.99999999999999989
10
163.25
20
158.25
10
165.50000000000006
20
158.25
42
-0.41421356237305862
10
166.50000000000003
20
157.25
10
166.50000000000003
20
141.75000000000006
42
-0.41421356237307422
10
165.5
20
140.75000000000003
10
163.25
20
140.75000000000003
42
0.99999999999999989
10
163.25
20
136.25
10
165.50000000000006
20
136.25
42
-0.41421356237305862
10
166.50000000000003
20
135.25
10
166.50000000000003
20
128
42
0.41421356237309503
10
167.50000000000003
20
127.00000000000001
10
210.49999999999997
20
127.00000000000001
42
0.41421356237309503
10
211.5
20
128
10
211.49999999999994
20
135.25
42
-0.41421356237310542
10
212.5
20
136.25
10
214.75
20
136.25
42
0.99999999999999989
10
214.75
20
140.75000000000003
10
212.5
20
140.75000000000003
42
-0.41421356237308982
10
211.5
20
141.75000000000003
10
211.49999999999994
20
157.24999999999997
42
-0.41421356237310542
10
212.5
20
158.25
10
214.75
20
158.25
42
0.99999999999999989
10
214.75
20
162.75000000000003
0
CIRCLE
5
159
100
AcDbEntity
8
0
100
AcDbCircle
10
-169.5
20
-125
30
0
40
2.2500000000000142
210
0
220
0
230
1
0
LWPOLYLINE
5
160
100
AcDbEntity
8
0
100
AcDbPolyline
90
4
70
1
43
0.0
10
33.400000000000006
20
-26.999999994300957
42
-0.99999999999999989
10
36.599999999999994
20
-26.999999994300946
10
36.599999999999994
20
-39.499999994300943
42
-0.99999999999999989
10
33.400000000000006
20
-39.499999994300943
0
CIRCLE
5
161
100
AcDbEntity
8
0
100
AcDbCircle
10
-150
20
-125
30
0
40
2.2499999999999964
210
0
220
0
230
1
0
CIRCLE
5
162
100
AcDbEntity
8
0
100
AcDbCircle
10
88.750000000000014
20
-77.499999993949586
30
0
40
2.2499999999999964
210
0
220
0
230
1
0
CIRCLE
5
163
100
AcDbEntity
8
0
100
AcDbCircle
10
249.99999999999997
20
-77.999999994300964
30
0
40
3.75
210
0
220
0
230
1
0
CIRCLE
5
164
100
AcDbEntity
8
0
100
AcDbCircle
10
-3.5527136788005009e-14
20
234
30
0
40
3.75
210
0
220
0
230
1
0
CIRCLE
5
165
100
AcDbEntity
8
0
100
AcDbCircle
10
-100
20
25.000000000000007
30
0
40
2.2499999999999964
210
0
220
0
230
1
0
CIRCLE
5
166
100
AcDbEntity
8
0
100
AcDbCircle
10
88.750000000000014
20
-169.49999999394947
30
0
40
2.2499999999999964
210
0
220
0
230
1
0
CIRCLE
5
167
100
AcDbEntity
8
0
100
AcDbCircle
10
249.99999999999997
20
234
30
0
40
3.75
210
0
220
0
230
1
0
CIRCLE
5
168
100
AcDbEntity
8
0
100
AcDbCircle
10
203.75
20
-77.499999993949586
30
0
40
2.2500000000000142
210
0
220
0
230
1
0
CIRCLE
5
169
100
AcDbEntity
8
0
100
AcDbCircle
10
-250.00000000000003
20
78
30
0
40
3.75
210
0
220
0
230
1
0
CIRCLE
5
170
100
AcDbEntity
8
0
100
AcDbCircle
10
-3.5527136788005009e-14
20
-77.999999994300964
30
0
40
3.75
210
0
220
0
230
1
0
CIRCLE
5
171
100
AcDbEntity
8
0
100
AcDbCircle
10
-3.5527136788005009e-14
20
78
30
0
40
3.75
210
0
220
0
230
1
0
CIRCLE
5
172
100
AcDbEntity
8
0
100
AcDbCircle
10
-169.5
20
34.500000000000014
30
0
40
2.2500000000000142
210
0
220
0
230
1
0
CIRCLE
5
173
100
AcDbEntity
8
0
100
AcDbCircle
10
203.75000000000006
20
-214.49999999394944
30
0
40
2.2500000000000142
210
0
220
0
230
1
0
CIRCLE
5
174
100
AcDbEntity
8
0
100
AcDbCircle
10
155.75000000000011
20
-214.49999999394944
30
0
40
2.2499999999999964
210
0
220
0
230
1
0
CIRCLE
5
175
100
AcDbEntity
8
0
100
AcDbCircle
10
203.75
20
32.500000006050378
30
0
40
2.2500000000000142
210
0
220
0
230
1
0
CIRCLE
5
176
100
AcDbEntity
8
0
100
AcDbCircle
10
249.99999999999997
20
-233.99999999430096
30
0
40
3.75
210
0
220
0
230
1
0
CIRCLE
5
177
100
AcDbEntity
8
0
100
AcDbCircle
10
249.99999999999997
20
78
30
0
40
3.75
210
0
220
0
230
1
0
CIRCLE
5
178
100
AcDbEntity
8
0
100
AcDbCircle
10
203.75
20
-169.49999999394947
30
0
40
2.2500000000000142
210
0
220
0
230
1
0
CIRCLE
5
179
100
AcDbEntity
8
0
100
AcDbCircle
10
-3.5527136788005009e-14
20
-233.99999999430096
30
0
40
3.75
210
0
220
0
230
1
0
CIRCLE
5
180
100
AcDbEntity
8
0
100
AcDbCircle
10
-250.00000000000003
20
234
30
0
40
3.75
210
0
220
0
230
1
0
CIRCLE
5
181
100
AcDbEntity
8
0
100
AcDbCircle
10
88.749999999999986
20
-59.49999999394965
30
0
40
2.2499999999999964
210
0
220
0
230
1
0
CIRCLE
5
182
100
AcDbEntity
8
0
100
AcDbCircle
10
-100
20
-125
30
0
40
2.2499999999999964
210
0
220
0
230
1
0
CIRCLE
5
183
100
AcDbEntity
8
0
100
AcDbCircle
10
203.75
20
-59.49999999394965
30
0
40
2.2500000000000142
210
0
220
0
230
1
0
CIRCLE
5
184
100
AcDbEntity
8
0
100
AcDbCircle
10
-80.5
20
34.500000000000014
30
0
40
2.2500000000000053
210
0
220
0
230
1
0
LWPOLYLINE
5
185
100
AcDbEntity
8
0
100
AcDbPolyline
90
8
70
1
43
0.0
10
40.999999999999929
20
-21.999999994300936
42
-0.4142135623730625
10
40.000000000000028
20
-22.99999999430095
10
29.999999999999964
20
-22.99999999430095
42
-0.41421356237309631
10
29.000000000000025
20
-21.999999994301007
10
29.000000000000028
20
-9.9999999943010742
42
-0.41421356237309764
10
31.000000000000021
20
-7.9999999943010724
10
39.000000000000043
20
-7.9999999943010796
42
-0.41421356237309664
10
41.000000000000028
20
-9.9999999943010742
0
CIRCLE
5
186
100
AcDbEntity
8
0
100
AcDbCircle
10
-80.5
20
-125
30
0
40
2.2500000000000053
210
0
220
0
230
1
0
CIRCLE
5
187
100
AcDbEntity
8
0
100
AcDbCircle
10
-150
20
25.000000000000007
30
0
40
2.2499999999999964
210
0
220
0
230
1
0
CIRCLE
5
188
100
AcDbEntity
8
0
100
AcDbCircle
10
-250.00000000000003
20
-77.999999994300964
30
0
40
3.75
210
0
220
0
230
1
0
CIRCLE
5
189
100
AcDbEntity
8
0
100
AcDbCircle
10
-250.00000000000003
20
-233.99999999430096
30
0
40
3.75
210
0
220
0
230
1
0
CIRCLE
5
190
100
AcDbEntity
8
0
100
AcDbCircle
10
88.749999999999986
20
32.500000006050378
30
0
40
2.2499999999999964
210
0
220
0
230
1
0
ENDSEC
0
SECTION
2
OBJECTS
0
DICTIONARY
5
C
100
AcDbDictionary
3
ACAD_GROUP
350
D
3
ACAD_MLINESTYLE
350
17
0
DICTIONARY
5
D
100
AcDbDictionary
0
DICTIONARY
5
1A
330
C
100
AcDbDictionary
0
DICTIONARY
5
17
100
AcDbDictionary
0
ENDSEC
0
EOF
