0
SECTION
2
HEADER
9
$INSUNITS
70
4
9
$ACADVER
1
AC1014
9
$HANDSEED
5
FFFF
0
ENDSEC
0
SECTION
2
TABLES
0
TABLE
2
VPORT
5
8
100
AcDbSymbolTable
0
ENDTAB
0
TABLE
2
LTYPE
5
5
100
AcDbSymbolTable
0
LTYPE
5
14
100
AcDbSymbolTableRecord
100
AcDbLinetypeTableRecord
2
BYBLOCK
70
0
0
LTYPE
5
15
100
AcDbSymbolTableRecord
100
AcDbLinetypeTableRecord
2
BYLAYER
70
0
0
ENDTAB
0
TABLE
2
LAYER
5
2
100
AcDbSymbolTable
70
2
0
LAYER
5
50
100
AcDbSymbolTableRecord
100
AcDbLayerTableRecord
2
0
70
0
6
CONTINUOUS
0
ENDTAB
0
TABLE
2
STYLE
5
3
100
AcDbSymbolTable
70
1
0
STYLE
5
11
100
AcDbSymbolTableRecord
100
AcDbTextStyleTableRecord
2
STANDARD
70
0
0
ENDTAB
0
TABLE
2
VIEW
5
6
100
AcDbSymbolTable
70
0
0
ENDTAB
0
TABLE
2
UCS
5
7
100
AcDbSymbolTable
70
0
0
ENDTAB
0
TABLE
2
APPID
5
9
100
AcDbSymbolTable
70
2
0
APPID
5
12
100
AcDbSymbolTableRecord
100
AcDbRegAppTableRecord
2
ACAD
70
0
0
ENDTAB
0
TABLE
2
DIMSTYLE
5
A
100
AcDbSymbolTable
70
1
0
ENDTAB
0
TABLE
2
BLOCK_RECORD
5
1
100
AcDbSymbolTable
70
1
0
BLOCK_RECORD
5
1F
100
AcDbSymbolTableRecord
100
AcDbBlockTableRecord
2
*MODEL_SPACE
0
BLOCK_RECORD
5
1B
100
AcDbSymbolTableRecord
100
AcDbBlockTableRecord
2
*PAPER_SPACE
0
ENDTAB
0
ENDSEC
0
SECTION
2
BLOCKS
0
BLOCK
5
20
100
AcDbEntity
100
AcDbBlockBegin
2
*MODEL_SPACE
0
ENDBLK
5
21
100
AcDbEntity
100
AcDbBlockEnd
0
BLOCK
5
1C
100
AcDbEntity
100
AcDbBlockBegin
2
*PAPER_SPACE
0
ENDBLK
5
1D
100
AcDbEntity
100
AcDbBlockEnd
0
ENDSEC
0
SECTION
2
ENTITIES
0
CIRCLE
5
100
100
AcDbEntity
8
0
100
AcDbCircle
10
250.00000000000003
20
234.00000000000003
30
0
40
3.2499999999999929
0
CIRCLE
5
101
100
AcDbEntity
8
0
100
AcDbCircle
10
250.00000000000003
20
0
30
0
40
3.2499999999999929
0
LWPOLYLINE
5
102
100
AcDbEntity
8
0
100
AcDbPolyline
90
6
70
1
43
0.0
10
-184.00213446687036
20
245.00000000000011
10
-196.87777881388823
20
245.00000000000003
42
0.57735026918962706
10
-199.90886772713372
20
239.75000000000006
10
-193.47104555362478
20
228.59936490538911
42
0.57735026918962462
10
-187.4088677271337
20
228.59936490538911
10
-180.9710455536248
20
239.75000000000011
42
0.57735026918962262
0
CIRCLE
5
103
100
AcDbEntity
8
0
100
AcDbCircle
10
-250.00000000000003
20
0
30
0
40
3.2499999999999929
0
CIRCLE
5
104
100
AcDbEntity
8
0
100
AcDbCircle
10
250.00000000000003
20
-234.00000000000003
30
0
40
3.2499999999999929
0
CIRCLE
5
105
100
AcDbEntity
8
0
100
AcDbCircle
10
-250.00000000000003
20
234.00000000000003
30
0
40
3.2499999999999929
0
LWPOLYLINE
5
106
100
AcDbEntity
8
0
100
AcDbPolyline
90
6
70
1
43
0.0
10
-202.13108891324538
20
228.59900000000096
10
-208.56891108675441
20
239.74963509461193
42
0.57735026918962307
10
-214.63108891324543
20
239.74963509461188
10
-221.06891108675433
20
228.59900000000079
42
0.57735026918962584
10
-218.03782217350874
20
223.34900000000084
10
-205.16217782649085
20
223.34900000000093
42
0.57735026918962373
0
LWPOLYLINE
5
107
100
AcDbEntity
8
0
100
AcDbPolyline
90
6
70
1
43
0.0
10
-3.0310889132454975
20
239.74963509461188
10
-9.4689110867543906
20
228.59900000000079
42
0.57735026918962484
10
-6.4378221735088124
20
223.34900000000084
10
6.4378221735090859
20
223.34900000000093
42
0.57735026918962451
10
9.4689110867545896
20
228.59900000000096
10
3.0310889132455801
20
239.7496350946119
42
0.57735026918962795
0
LWPOLYLINE
5
108
100
AcDbEntity
8
0
100
AcDbPolyline
90
6
70
1
43
0.0
10
81.608911086754489
20
239.74963509461188
10
75.171088913245597
20
228.59900000000079
42
0.57735026918962506
10
78.20217782649118
20
223.34900000000084
10
91.077822173509048
20
223.34900000000093
42
0.57735026918962462
10
94.108911086754574
20
228.59900000000096
10
87.671088913245569
20
239.7496350946119
42
0.57735026918962851
0
LWPOLYLINE
5
109
100
AcDbEntity
8
0
100
AcDbPolyline
90
6
70
1
43
0.0
10
66.511132272866263
20
228.59936490538905
10
72.948954446375183
20
239.75000000000009
42
0.57735026918962673
10
69.917865533129628
20
245.00000000000011
10
57.04222118611176
20
245.00000000000006
42
0.57735026918962495
10
54.01113227286622
20
239.75000000000006
10
60.44895444637519
20
228.59936490538905
42
0.5773502691896244
0
LWPOLYLINE
5
110
100
AcDbEntity
8
0
100
AcDbPolyline
90
6
70
1
43
0.0
10
24.191132272866263
20
228.59936490538905
10
30.628954446375189
20
239.75000000000009
42
0.5773502691896264
10
27.597865533129632
20
245.00000000000011
10
14.722221186111764
20
245.00000000000006
42
0.57735026918962506
10
11.691132272866229
20
239.75000000000006
10
18.128954446375197
20
228.59936490538905
42
0.5773502691896244
0
CIRCLE
5
111
100
AcDbEntity
8
0
100
AcDbCircle
10
-250.00000000000003
20
-234.00000000000003
30
0
40
3.2499999999999929
0
LWPOLYLINE
5
112
100
AcDbEntity
8
0
100
AcDbPolyline
90
6
70
1
43
0.0
10
-129.99108891324548
20
239.74963509461188
10
-136.42891108675437
20
228.59900000000079
42
0.57735026918962418
10
-133.39782217350881
20
223.34900000000084
10
-120.52217782649092
20
223.34900000000093
42
0.57735026918962462
10
-117.49108891324539
20
228.59900000000096
10
-123.9289110867544
20
239.7496350946119
42
0.57735026918962851
0
LWPOLYLINE
5
113
100
AcDbEntity
8
0
100
AcDbPolyline
90
6
70
1
43
0.0
10
39.288911086754496
20
239.74963509461188
10
32.851088913245604
20
228.59900000000079
42
0.57735026918962484
10
35.882177826491187
20
223.34900000000084
10
48.757822173509091
20
223.34900000000093
42
0.57735026918962418
10
51.788911086754588
20
228.59900000000096
10
45.351088913245576
20
239.7496350946119
42
0.57735026918962795
0
LWPOLYLINE
5
114
100
AcDbEntity
8
0
100
AcDbPolyline
90
6
70
1
43
0.0
10
-45.351088913245491
20
239.74963509461188
10
-51.788911086754382
20
228.59900000000079
42
0.57735026918962506
10
-48.757822173508806
20
223.34900000000084
10
-35.882177826490903
20
223.34900000000093
42
0.57735026918962407
10
-32.851088913245398
20
228.59900000000096
10
-39.288911086754418
20
239.7496350946119
42
0.57735026918962795
0
LWPOLYLINE
5
115
100
AcDbEntity
8
0
100
AcDbPolyline
90
6
70
1
43
0.0
10
-87.671088913245484
20
239.74963509461188
10
-94.108911086754375
20
228.59900000000079
42
0.57735026918962418
10
-91.077822173508807
20
223.34900000000084
10
-78.202177826490896
20
223.34900000000093
42
0.57735026918962373
10
-75.171088913245384
20
228.59900000000096
10
-81.608911086754404
20
239.7496350946119
42
0.57735026918962851
0
LWPOLYLINE
5
116
100
AcDbEntity
8
0
100
AcDbPolyline
90
6
70
1
43
0.0
10
-60.448867727133724
20
228.59936490538905
10
-54.011045553624797
20
239.75000000000009
42
0.57735026918962673
10
-57.042134466870351
20
245.00000000000011
10
-69.917778813888219
20
245.00000000000006
42
0.57735026918962495
10
-72.948867727133759
20
239.75000000000006
10
-66.511045553624783
20
228.59936490538905
42
0.5773502691896244
0
LWPOLYLINE
5
117
100
AcDbEntity
8
0
100
AcDbPolyline
90
6
70
1
43
0.0
10
-102.76886772713371
20
228.59936490538905
10
-96.33104555362479
20
239.75000000000009
42
0.57735026918962795
10
-99.362134466870344
20
245.00000000000011
10
-112.23777881388821
20
245.00000000000006
42
0.57735026918962373
10
-115.26886772713375
20
239.75000000000006
10
-108.83104555362479
20
228.59936490538905
42
0.57735026918962462
0
LWPOLYLINE
5
118
100
AcDbEntity
8
0
100
AcDbPolyline
90
6
70
1
43
0.0
10
-145.0888677271337
20
228.59936490538905
10
-138.65104555362478
20
239.75000000000009
42
0.57735026918962795
10
-141.68213446687034
20
245.00000000000011
10
-154.55777881388823
20
245.00000000000006
42
0.57735026918962462
10
-157.58886772713373
20
239.75000000000006
10
-151.15104555362478
20
228.59936490538905
42
0.57735026918962462
0
LWPOLYLINE
5
119
100
AcDbEntity
8
0
100
AcDbPolyline
90
6
70
1
43
0.0
10
-18.128867727133731
20
228.59936490538905
10
-11.691045553624804
20
239.75000000000009
42
0.5773502691896264
10
-14.722134466870362
20
245.00000000000011
10
-27.59777881388823
20
245.00000000000006
42
0.57735026918962529
10
-30.628867727133763
20
239.75000000000006
10
-24.191045553624789
20
228.59936490538905
42
0.57735026918962407
0
LWPOLYLINE
5
120
100
AcDbEntity
8
0
100
AcDbPolyline
90
6
70
1
43
0.0
10
123.92891108675448
20
239.74963509461188
10
117.49108891324559
20
228.59900000000079
42
0.57735026918962418
10
120.52217782649116
20
223.34900000000084
10
133.39782217350904
20
223.34900000000093
42
0.57735026918962462
10
136.42891108675457
20
228.59900000000096
10
129.99108891324556
20
239.7496350946119
42
0.57735026918962851
0
LWPOLYLINE
5
121
100
AcDbEntity
8
0
100
AcDbPolyline
90
6
70
1
43
0.0
10
-172.31108891324544
20
239.74963509461188
10
-178.74891108675433
20
228.59900000000079
42
0.57735026918962584
10
-175.71782217350875
20
223.34900000000084
10
-162.84217782649085
20
223.34900000000093
42
0.57735026918962373
10
-159.81108891324538
20
228.59900000000096
10
-166.24891108675442
20
239.7496350946119
42
0.57735026918962595
0
LWPOLYLINE
5
122
100
AcDbEntity
8
0
100
AcDbPolyline
90
6
70
1
43
0.0
10
151.15113227286625
20
228.59936490538911
10
157.58895444637514
20
239.75000000000009
42
0.57735026918962795
10
154.55786553312959
20
245.00000000000011
10
141.68222118611175
20
245.00000000000006
42
0.57735026918962373
10
138.65113227286622
20
239.75000000000006
10
145.08895444637517
20
228.59936490538911
42
0.57735026918962551
0
LWPOLYLINE
5
123
100
AcDbEntity
8
0
100
AcDbPolyline
90
12
70
1
43
0.0
10
-166.37672630064785
20
-200.76047741942961
42
-0.32142210364675144
10
-164.00036378470051
20
-204.07520799738484
10
-164.00036378470048
20
-230.2075691832363
42
-0.32142210364675605
10
-166.37672630064785
20
-233.52229976119165
10
-193.87672630064782
20
-242.84433365949673
42
-0.16488362543450541
10
-196.12400126875315
20
-242.84433365949673
10
-223.62400126875315
20
-233.52229976119159
42
-0.32142210364675322
10
-226.00036378470048
20
-230.20756918323633
10
-226.00036378470054
20
-204.07520799738481
42
-0.32142210364675039
10
-223.62400126875315
20
-200.76047741942955
10
-196.12400126875318
20
-191.43844352112444
42
-0.16488362543450541
10
-193.87672630064785
20
-191.43844352112444
0
LWPOLYLINE
5
124
100
AcDbEntity
8
0
100
AcDbPolyline
90
6
70
1
43
0.0
10
221.07922863995597
20
228.59545114442196
10
214.64602619726048
20
239.76826411078147
42
0.57774047629187986
10
208.58180220621978
20
239.77181296636076
10
202.13117563248673
20
228.59900000000118
42
0.57735026918963062
10
205.16226454573228
20
223.34900000000115
10
218.04609356216082
20
223.34900000000121
42
0.57696019390522046
0
LWPOLYLINE
5
125
100
AcDbEntity
8
0
100
AcDbPolyline
90
6
70
1
43
0.0
10
108.83113227286626
20
228.59936490538905
10
115.26895444637518
20
239.75000000000009
42
0.57735026918962795
10
112.23786553312962
20
245.00000000000011
10
99.362221186111753
20
245.00000000000006
42
0.57735026918962373
10
96.331132272866213
20
239.75000000000006
10
102.76895444637518
20
228.59936490538905
42
0.57735026918962462
0
LWPOLYLINE
5
126
100
AcDbEntity
8
0
100
AcDbPolyline
90
6
70
1
43
0.0
10
193.47113227286624
20
228.59936490538911
10
199.90895444637516
20
239.75000000000009
42
0.57735026918962373
10
196.87786553312958
20
245.00000000000011
10
184.00222118611171
20
245.00000000000006
42
0.57735026918962706
10
180.97113227286621
20
239.75000000000006
10
187.40895444637516
20
228.59936490538911
42
0.57735026918962462
0
LWPOLYLINE
5
127
100
AcDbEntity
8
0
100
AcDbPolyline
90
6
70
1
43
0.0
10
166.2489110867545
20
239.74963509461188
10
159.81108891324561
20
228.59900000000081
42
0.57735026918962884
10
162.84217782649119
20
223.34900000000084
10
175.71782217350909
20
223.34900000000093
42
0.57735026918962373
10
178.74891108675456
20
228.59900000000096
10
172.31108891324553
20
239.74963509461193
42
0.57735026918962307
0
LWPOLYLINE
5
128
100
AcDbEntity
8
0
100
AcDbPolyline
90
4
70
1
43
0.0
10
264.5
20
249.50000000000014
10
264.5
20
-249.50000000000006
10
-264.5
20
-249.50000000000003
10
-264.5
20
249.50000000000003
0
ARC
5
129
100
AcDbEntity
8
0
100
AcDbCircle
10
-4.9999999999999165
20
-204.64138859031053
30
0
40
4.9999999999999165
100
AcDbArc
50
0
51
90.000000000000142
0
LINE
5
130
100
AcDbEntity
8
0
100
AcDbLine
10
0
20
-204.64138859031053
30
0
11
0
21
-229.6413885903107
31
0
0
ARC
5
131
100
AcDbEntity
8
0
100
AcDbCircle
10
-4.9999999999999165
20
-229.64138859031067
30
0
40
4.9999999999999289
100
AcDbArc
50
269.99999999999983
51
360
0
ARC
5
132
100
AcDbEntity
8
0
100
AcDbCircle
10
-95.000000000000014
20
-229.6413885903107
30
0
40
4.9999999999999112
100
AcDbArc
50
180
51
270.00000000000017
0
LINE
5
133
100
AcDbEntity
8
0
100
AcDbLine
10
-99.999999999999929
20
-229.64138859031067
30
0
11
-99.999999999999929
21
-204.64138859031056
31
0
0
ARC
5
134
100
AcDbEntity
8
0
100
AcDbCircle
10
-95.000000000000014
20
-204.6413885903105
30
0
40
4.9999999999998934
100
AcDbArc
50
89.999999999999844
51
180
0
LINE
5
135
100
AcDbEntity
8
0
100
AcDbLine
10
-95
20
-199.64138859031061
30
0
11
-50.499999999999964
21
-199.64138859031061
31
0
0
LINE
5
136
100
AcDbEntity
8
0
100
AcDbLine
10
-49.499999999999964
20
-199.64138859031061
30
0
11
-4.9999999999999289
21
-199.64138859031061
31
0
0
LINE
5
137
100
AcDbEntity
8
0
100
AcDbLine
10
-4.9999999999999298
20
-234.64138859031061
30
0
11
-49.499999999999964
21
-234.64138859031061
31
0
0
LINE
5
138
100
AcDbEntity
8
0
100
AcDbLine
10
-50.499999999999964
20
-234.64138859031061
30
0
11
-95
21
-234.64138859031056
31
0
0
ARC
5
139
100
AcDbEntity
8
0
100
AcDbCircle
10
-104.2
20
10.050000000000008
30
0
40
33
100
AcDbArc
50
90.868151090248929
51
269.13184890975111
0
ARC
5
140
100
AcDbEntity
8
0
100
AcDbCircle
10
-104.2
20
10.050000000000008
30
0
40
33
100
AcDbArc
50
-89.131848909751099
51
89.131848909751056
0
ENDSEC
0
SECTION
2
OBJECTS
0
DICTIONARY
5
C
100
AcDbDictionary
3
ACAD_GROUP
350
D
3
ACAD_MLINESTYLE
350
17
0
DICTIONARY
5
D
100
AcDbDictionary
0
DICTIONARY
5
1A
330
C
100
AcDbDictionary
0
DICTIONARY
5
17
100
AcDbDictionary
0
ENDSEC
0
EOF
