0
SECTION
2
HEADER
9
$INSUNITS
70
4
9
$ACADVER
1
AC1014
9
$HANDSEED
5
FFFF
0
ENDSEC
0
SECTION
2
TABLES
0
TABLE
2
VPORT
5
8
100
AcDbSymbolTable
0
ENDTAB
0
TABLE
2
LTYPE
5
5
100
AcDbSymbolTable
0
LTYPE
5
14
100
AcDbSymbolTableRecord
100
AcDbLinetypeTableRecord
2
BYBLOCK
70
0
0
LTYPE
5
15
100
AcDbSymbolTableRecord
100
AcDbLinetypeTableRecord
2
BYLAYER
70
0
0
ENDTAB
0
TABLE
2
LAYER
5
2
100
AcDbSymbolTable
70
2
0
LAYER
5
50
100
AcDbSymbolTableRecord
100
AcDbLayerTableRecord
2
0
70
0
6
CONTINUOUS
0
ENDTAB
0
TABLE
2
STYLE
5
3
100
AcDbSymbolTable
70
1
0
STYLE
5
11
100
AcDbSymbolTableRecord
100
AcDbTextStyleTableRecord
2
STANDARD
70
0
0
ENDTAB
0
TABLE
2
VIEW
5
6
100
AcDbSymbolTable
70
0
0
ENDTAB
0
TABLE
2
UCS
5
7
100
AcDbSymbolTable
70
0
0
ENDTAB
0
TABLE
2
APPID
5
9
100
AcDbSymbolTable
70
2
0
APPID
5
12
100
AcDbSymbolTableRecord
100
AcDbRegAppTableRecord
2
ACAD
70
0
0
ENDTAB
0
TABLE
2
DIMSTYLE
5
A
100
AcDbSymbolTable
70
1
0
ENDTAB
0
TABLE
2
BLOCK_RECORD
5
1
100
AcDbSymbolTable
70
1
0
BLOCK_RECORD
5
1F
100
AcDbSymbolTableRecord
100
AcDbBlockTableRecord
2
*MODEL_SPACE
0
BLOCK_RECORD
5
1B
100
AcDbSymbolTableRecord
100
AcDbBlockTableRecord
2
*PAPER_SPACE
0
ENDTAB
0
ENDSEC
0
SECTION
2
BLOCKS
0
BLOCK
5
20
100
AcDbEntity
100
AcDbBlockBegin
2
*MODEL_SPACE
0
ENDBLK
5
21
100
AcDbEntity
100
AcDbBlockEnd
0
BLOCK
5
1C
100
AcDbEntity
100
AcDbBlockBegin
2
*PAPER_SPACE
0
ENDBLK
5
1D
100
AcDbEntity
100
AcDbBlockEnd
0
ENDSEC
0
SECTION
2
ENTITIES
0
LWPOLYLINE
5
100
100
AcDbEntity
8
0
100
AcDbPolyline
90
74
70
1
43
0.0
10
210.00000000000006
20
160.84888892202548
42
-0.3152987888789695
10
211.31595971334872
20
162.72827416359732
10
213.45358560913411
20
163.50630636165991
42
0.70020753820970527
10
213.45358560913411
20
171.49369363834012
10
211.31595971334875
20
172.27172583640268
42
-0.31529878887895846
10
210.00000000000006
20
174.15111107797446
10
210.00000000000006
20
218
42
0.13585556137573823
10
209.28824641004888
20
220.57117535899516
10
205.1423507179901
20
227.48576492820064
42
-0.13585556137569502
10
204.99999999999977
20
227.99999999999989
10
205
20
255.5
42
-0.41421356237309503
10
207
20
257.5
10
269.50000000000006
20
257.5
42
-0.41421356237309503
10
270
20
257.00000000000006
10
270.00000000000006
20
-247.00000552638738
42
-0.41283714808464045
10
269.50235082042042
20
-247.5
10
8.2499999999999716
20
-247.5
42
-0.41421356237310042
10
6.2499999999999645
20
-245.49999999999997
10
6.25
20
-236.25
42
0.99999999999999989
10
-6.25
20
-236.25
10
-6.2499999999999778
20
-245.49999999999997
42
-0.41421356237309825
10
-8.2499999999999574
20
-247.5
10
-269.50235082042042
20
-247.50000000000006
42
-0.41283714808468186
10
-270.00000000000006
20
-247.00000552638738
10
-270
20
257.00000000000006
42
-0.41421356237307422
10
-269.50000000000011
20
257.5
10
-207
20
257.5
42
-0.41421356237308982
10
-205
20
255.50000000000006
10
-204.99999999999989
20
227.99999999999994
42
-0.13585556137572927
10
-205.14235071799027
20
227.48576492820064
10
-209.2882464100488
20
220.57117535899516
42
0.13585556137573071
10
-210
20
218.00000000000006
10
-210
20
174.15111107797452
42
-0.3152987888789695
10
-211.31595971334863
20
172.27172583640268
10
-213.45358560913411
20
171.49369363834009
42
0.70020753820970527
10
-213.45358560913411
20
163.50630636165988
10
-211.31595971334863
20
162.72827416359721
42
-0.31529878887895363
10
-210
20
160.84888892202554
10
-210
20
-167.49999999997715
42
0.41421356237309503
10
-199.9999999999776
20
-177.49999999999955
10
-165.74999999997868
20
-177.50000000000591
42
-0.41421356237326151
10
-163.74999999997755
20
-179.50000000000588
10
-163.74999999997755
20
-188.75003696692275
42
0.99999999999999989
10
-151.24999999997777
20
-188.75003696692275
10
-151.24999999997758
20
-179.50000000000722
42
-0.41421356237309243
10
-149.2499999999776
20
-177.50000000000716
10
-75.749999999999943
20
-177.50000000000716
42
-0.41421356237309503
10
-73.749999999999929
20
-179.50000000000722
10
-73.749999999999957
20
-188.75003696692275
42
0.99999999999999989
10
-61.249999999999964
20
-188.75003696692275
10
-61.249999999999957
20
-179.50002979099636
42
-0.41421330761175784
10
-59.250001739619336
20
-177.50002979099713
10
-24.999991301902998
20
-177.49999999999983
42
0.41421330761175612
10
-15.000000000000036
20
-167.50000000000369
10
-15.000000000000046
20
-119.49999999999997
42
-0.41421356237309664
10
-13.000000000000041
20
-117.49999999999999
10
13.000000000000053
20
-117.5
42
-0.41421356237309503
10
15.000000000000036
20
-119.49999999999997
10
15.000000000000046
20
-167.50000000000401
42
0.41421330761175679
10
24.999991301903002
20
-177.49999999999977
10
59.250001739619343
20
-177.50002979099713
42
-0.41421330761175656
10
61.249999999999964
20
-179.50002979099636
10
61.249999999999957
20
-188.75003696692275
42
0.99999999999999989
10
73.749999999999972
20
-188.75003696692275
10
73.749999999999915
20
-179.50000000000722
42
-0.41421356237309503
10
75.749999999999943
20
-177.50000000000716
10
149.24999999997758
20
-177.50000000000716
42
-0.41421356237309503
10
151.24999999997758
20
-179.50000000000716
10
151.24999999997772
20
-188.75003696692275
42
0.99999999999999989
10
163.74999999997755
20
-188.75003696692275
10
163.7499999999738
20
-179.50000000000588
42
-0.4142135623730222
10
165.74999999997868
20
-177.50000000000051
10
199.9999999999776
20
-177.49999999999955
42
0.41421356237309398
10
210
20
-167.49999999997721
0
CIRCLE
5
101
100
AcDbEntity
8
0
100
AcDbCircle
10
179.49999999999991
20
-236
30
0
40
1.6000000000000014
0
CIRCLE
5
102
100
AcDbEntity
8
0
100
AcDbCircle
10
172.4999999999776
20
-188.75003696692275
30
0
40
1.2645
0
CIRCLE
5
103
100
AcDbEntity
8
0
100
AcDbCircle
10
211.99999999999991
20
-191
30
0
40
3.3897500000000003
0
CIRCLE
5
104
100
AcDbEntity
8
0
100
AcDbCircle
10
179.49999999999991
20
-205
30
0
40
1.6000000000000014
0
CIRCLE
5
105
100
AcDbEntity
8
0
100
AcDbCircle
10
250
20
242.49999999999997
30
0
40
4.2000000000000171
0
CIRCLE
5
106
100
AcDbEntity
8
0
100
AcDbCircle
10
-210.49999999999994
20
-236
30
0
40
1.6000000000000014
0
CIRCLE
5
107
100
AcDbEntity
8
0
100
AcDbCircle
10
-211.99999999999991
20
-191
30
0
40
3.3897500000000003
0
CIRCLE
5
108
100
AcDbEntity
8
0
100
AcDbCircle
10
-15
20
-236.25
30
0
40
1.2645
0
CIRCLE
5
109
100
AcDbEntity
8
0
100
AcDbCircle
10
-247.5
20
56.49999999999995
30
0
40
1.2645
0
CIRCLE
5
110
100
AcDbEntity
8
0
100
AcDbCircle
10
250
20
-197.5
30
0
40
4.2000000000000171
0
CIRCLE
5
111
100
AcDbEntity
8
0
100
AcDbCircle
10
-210.49999999999994
20
-205
30
0
40
1.6000000000000014
0
CIRCLE
5
112
100
AcDbEntity
8
0
100
AcDbCircle
10
-247.5
20
-93.500000000000057
30
0
40
1.2645
0
CIRCLE
5
113
100
AcDbEntity
8
0
100
AcDbCircle
10
-247.5
20
-43.50000000000005
30
0
40
1.2645
0
CIRCLE
5
114
100
AcDbEntity
8
0
100
AcDbCircle
10
-15
20
-212.5
30
0
40
1.6500000000000004
0
CIRCLE
5
115
100
AcDbEntity
8
0
100
AcDbCircle
10
197
20
-203.75
30
0
40
3.3897500000000003
0
CIRCLE
5
116
100
AcDbEntity
8
0
100
AcDbCircle
10
-82.499999999999972
20
-188.75003696692275
30
0
40
1.2645
0
CIRCLE
5
117
100
AcDbEntity
8
0
100
AcDbCircle
10
-179.49999999999991
20
-205
30
0
40
1.6000000000000014
0
CIRCLE
5
118
100
AcDbEntity
8
0
100
AcDbCircle
10
0
20
-162.5
30
0
40
4.2000000000000002
0
CIRCLE
5
119
100
AcDbEntity
8
0
100
AcDbCircle
10
-247.5
20
106.49999999999994
30
0
40
1.2645
0
CIRCLE
5
120
100
AcDbEntity
8
0
100
AcDbCircle
10
-247.5
20
6.4999999999999503
30
0
40
1.2645
0
CIRCLE
5
121
100
AcDbEntity
8
0
100
AcDbCircle
10
-224.74999999999991
20
-195.5
30
0
40
3.3897500000000003
0
CIRCLE
5
122
100
AcDbEntity
8
0
100
AcDbCircle
10
-142.49999999997772
20
-188.75003696692275
30
0
40
1.2645
0
CIRCLE
5
123
100
AcDbEntity
8
0
100
AcDbCircle
10
-172.4999999999776
20
-188.75003696692275
30
0
40
1.2645
0
CIRCLE
5
124
100
AcDbEntity
8
0
100
AcDbCircle
10
250
20
-227.5
30
0
40
4.2000000000000171
0
CIRCLE
5
125
100
AcDbEntity
8
0
100
AcDbCircle
10
15
20
-212.5
30
0
40
1.6500000000000004
0
CIRCLE
5
126
100
AcDbEntity
8
0
100
AcDbCircle
10
210.49999999999994
20
-236
30
0
40
1.6000000000000014
0
CIRCLE
5
127
100
AcDbEntity
8
0
100
AcDbCircle
10
-52.499999999999957
20
-188.75003696692275
30
0
40
1.2645
0
CIRCLE
5
128
100
AcDbEntity
8
0
100
AcDbCircle
10
-250
20
242.49999999999997
30
0
40
4.2000000000000171
0
CIRCLE
5
129
100
AcDbEntity
8
0
100
AcDbCircle
10
-247.5
20
156.49999999999994
30
0
40
1.2645
0
CIRCLE
5
130
100
AcDbEntity
8
0
100
AcDbCircle
10
0
20
-132.49999999999997
30
0
40
4.2000000000000002
0
CIRCLE
5
131
100
AcDbEntity
8
0
100
AcDbCircle
10
210.49999999999994
20
-205
30
0
40
1.6000000000000014
0
CIRCLE
5
132
100
AcDbEntity
8
0
100
AcDbCircle
10
-220
20
242.49999999999997
30
0
40
4.2000000000000171
0
CIRCLE
5
133
100
AcDbEntity
8
0
100
AcDbCircle
10
-250
20
-227.5
30
0
40
4.2000000000000171
0
CIRCLE
5
134
100
AcDbEntity
8
0
100
AcDbCircle
10
-197
20
-203.75
30
0
40
3.3897500000000003
0
CIRCLE
5
135
100
AcDbEntity
8
0
100
AcDbCircle
10
-250
20
-197.5
30
0
40
4.2000000000000171
0
CIRCLE
5
136
100
AcDbEntity
8
0
100
AcDbCircle
10
247.5
20
6.4999999999999503
30
0
40
1.2645
0
CIRCLE
5
137
100
AcDbEntity
8
0
100
AcDbCircle
10
-179.49999999999991
20
-236
30
0
40
1.6000000000000014
0
CIRCLE
5
138
100
AcDbEntity
8
0
100
AcDbCircle
10
247.5
20
106.49999999999994
30
0
40
1.2645
0
CIRCLE
5
139
100
AcDbEntity
8
0
100
AcDbCircle
10
247.5
20
-93.500000000000057
30
0
40
1.2645
0
CIRCLE
5
140
100
AcDbEntity
8
0
100
AcDbCircle
10
52.499999999999957
20
-188.75003696692275
30
0
40
1.2645
0
CIRCLE
5
141
100
AcDbEntity
8
0
100
AcDbCircle
10
82.499999999999972
20
-188.75003696692275
30
0
40
1.2645
0
CIRCLE
5
142
100
AcDbEntity
8
0
100
AcDbCircle
10
247.5
20
156.49999999999994
30
0
40
1.2645
0
CIRCLE
5
143
100
AcDbEntity
8
0
100
AcDbCircle
10
224.74999999999991
20
-195.5
30
0
40
3.3897500000000003
0
CIRCLE
5
144
100
AcDbEntity
8
0
100
AcDbCircle
10
142.49999999997772
20
-188.75003696692275
30
0
40
1.2645
0
CIRCLE
5
145
100
AcDbEntity
8
0
100
AcDbCircle
10
220
20
242.49999999999997
30
0
40
4.2000000000000171
0
CIRCLE
5
146
100
AcDbEntity
8
0
100
AcDbCircle
10
247.5
20
206.49999999999994
30
0
40
1.2645
0
CIRCLE
5
147
100
AcDbEntity
8
0
100
AcDbCircle
10
247.5
20
56.49999999999995
30
0
40
1.2645
0
CIRCLE
5
148
100
AcDbEntity
8
0
100
AcDbCircle
10
247.5
20
-43.50000000000005
30
0
40
1.2645
0
CIRCLE
5
149
100
AcDbEntity
8
0
100
AcDbCircle
10
-194.99999999999994
20
-220.5
30
0
40
3.9999999999999858
0
CIRCLE
5
150
100
AcDbEntity
8
0
100
AcDbCircle
10
-247.5
20
206.49999999999994
30
0
40
1.2645
0
CIRCLE
5
151
100
AcDbEntity
8
0
100
AcDbCircle
10
-172.4999999999776
20
-212.50003696692275
30
0
40
1.6499999999999915
0
CIRCLE
5
152
100
AcDbEntity
8
0
100
AcDbCircle
10
-52.499999999999957
20
-212.50003696692275
30
0
40
1.6500000000000004
0
CIRCLE
5
153
100
AcDbEntity
8
0
100
AcDbCircle
10
236.50000000000003
20
210.99999999999997
30
0
40
2.1499999999999986
0
CIRCLE
5
154
100
AcDbEntity
8
0
100
AcDbCircle
10
-247.5
20
-143.50000000000006
30
0
40
1.2645
0
CIRCLE
5
155
100
AcDbEntity
8
0
100
AcDbCircle
10
-258.5
20
210.99999999999997
30
0
40
2.1499999999999986
0
CIRCLE
5
156
100
AcDbEntity
8
0
100
AcDbCircle
10
258.5
20
210.99999999999997
30
0
40
2.1499999999999986
0
CIRCLE
5
157
100
AcDbEntity
8
0
100
AcDbCircle
10
247.5
20
-143.50000000000006
30
0
40
1.2645
0
CIRCLE
5
158
100
AcDbEntity
8
0
100
AcDbCircle
10
-220
20
6.4999999999999858
30
0
40
3.5000000000000142
0
CIRCLE
5
159
100
AcDbEntity
8
0
100
AcDbCircle
10
220
20
6.4999999999999858
30
0
40
3.5000000000000142
0
CIRCLE
5
160
100
AcDbEntity
8
0
100
AcDbCircle
10
15
20
-236.25
30
0
40
1.2645
0
CIRCLE
5
161
100
AcDbEntity
8
0
100
AcDbCircle
10
82.499999999999972
20
-212.50003696692275
30
0
40
1.6499999999999915
0
CIRCLE
5
162
100
AcDbEntity
8
0
100
AcDbCircle
10
-142.49999999997772
20
-212.50003696692275
30
0
40
1.6499999999999915
0
CIRCLE
5
163
100
AcDbEntity
8
0
100
AcDbCircle
10
-247.5
20
219
30
0
40
2.1499999999999986
0
CIRCLE
5
164
100
AcDbEntity
8
0
100
AcDbCircle
10
-82.499999999999972
20
-212.50003696692275
30
0
40
1.6499999999999915
0
CIRCLE
5
165
100
AcDbEntity
8
0
100
AcDbCircle
10
194.99999999999994
20
-220.5
30
0
40
3.9999999999999858
0
CIRCLE
5
166
100
AcDbEntity
8
0
100
AcDbCircle
10
52.499999999999957
20
-212.50003696692275
30
0
40
1.6500000000000004
0
CIRCLE
5
167
100
AcDbEntity
8
0
100
AcDbCircle
10
247.5
20
219
30
0
40
2.1499999999999986
0
CIRCLE
5
168
100
AcDbEntity
8
0
100
AcDbCircle
10
142.49999999997772
20
-212.50003696692275
30
0
40
1.6499999999999915
0
CIRCLE
5
169
100
AcDbEntity
8
0
100
AcDbCircle
10
-236.50000000000003
20
210.99999999999997
30
0
40
2.1499999999999986
0
CIRCLE
5
170
100
AcDbEntity
8
0
100
AcDbCircle
10
172.4999999999776
20
-212.50003696692275
30
0
40
1.6499999999999915
0
ENDSEC
0
SECTION
2
OBJECTS
0
DICTIONARY
5
C
100
AcDbDictionary
3
ACAD_GROUP
350
D
3
ACAD_MLINESTYLE
350
17
0
DICTIONARY
5
D
100
AcDbDictionary
0
DICTIONARY
5
1A
330
C
100
AcDbDictionary
0
DICTIONARY
5
17
100
AcDbDictionary
0
ENDSEC
0
EOF
